# xmcd CD database file
#
# Track frame offsets:
#	150
#	21374
#	49115
#
# Disc length: 1220 seconds
#
# Revision: 2
# Processed by: cddbd v1.5.2PL0 Copyright (c) Steve Scherf et al.
# Submitted via: CDex 1.70beta3
#
DISCID=1f04c203
DTITLE=大鴉 - Prayer
DYEAR=2006
DGENRE=Hard Rock
TTITLE0=Prayer
TTITLE1=Datensi
TTITLE2=Prayer -Remix By Dybo-
EXTD=YEAR: 2006
EXTT0=
EXTT1=
EXTT2=
PLAYORDER=
